<?xml version="1.0" encoding="utf-8"?>
<!-- Generator: Adobe Illustrator 26.5.0, SVG Export Plug-In . SVG Version: 6.00 Build 0)  -->
<svg version="1.1" id="Capa_1" xmlns="http://www.w3.org/2000/svg" xmlns:xlink="http://www.w3.org/1999/xlink" x="0px" y="0px"
	 viewBox="0 0 22 22" style="enable-background:new 0 0 22 22;" xml:space="preserve">
<style type="text/css">
	.st0{fill:#F3EFFF;}
</style>
<path class="st0" d="M3.9,1.1l17,17c0.8,0.8,0.8,2,0,2.8l0,0c-0.8,0.8-2,0.8-2.8,0l-17-17c-0.8-0.8-0.8-2,0-2.8l0,0
	C1.9,0.3,3.1,0.3,3.9,1.1z"/>
<path class="st0" d="M18.1,1.1l-17,17c-0.8,0.8-0.8,2,0,2.8l0,0c0.8,0.8,2,0.8,2.8,0l17-17c0.8-0.8,0.8-2,0-2.8l0,0
	C20.1,0.3,18.9,0.3,18.1,1.1z"/>
</svg>
